<svg width="24" height="24" viewBox="0 0 24 24" fill="none" xmlns="http://www.w3.org/2000/svg">
<path d="M17.5231 15.4597C17.3254 15.4598 17.1321 15.3991 16.9678 15.2855C16.8034 15.1718 16.6753 15.0102 16.5996 14.8212C16.5239 14.6321 16.5041 14.4241 16.5426 14.2233C16.5811 14.0226 16.6763 13.8382 16.816 13.6935C16.9558 13.5488 17.1338 13.4502 17.3277 13.4102C17.5216 13.3703 17.7225 13.3907 17.9052 13.469C18.0878 13.5473 18.2439 13.6799 18.3538 13.85C18.4636 14.0201 18.5223 14.2202 18.5223 14.4248C18.522 14.6991 18.4167 14.9621 18.2293 15.1561C18.042 15.3501 17.788 15.4593 17.5231 15.4597ZM6.47694 15.4597C6.27927 15.4598 6.08602 15.3991 5.92164 15.2855C5.75726 15.1718 5.62913 15.0102 5.55345 14.8212C5.47777 14.6321 5.45794 14.4241 5.49647 14.2233C5.53499 14.0226 5.63015 13.8382 5.7699 13.6935C5.90965 13.5488 6.08772 13.4502 6.28158 13.4102C6.47545 13.3703 6.67641 13.3907 6.85905 13.469C7.04169 13.5473 7.19781 13.6799 7.30766 13.85C7.41751 14.0201 7.47616 14.2202 7.4762 14.4248C7.47595 14.6992 7.37061 14.9622 7.18327 15.1562C6.99594 15.3502 6.74192 15.4594 6.47694 15.4597ZM17.8814 9.2275L19.8787 5.64628C19.906 5.59736 19.9238 5.54334 19.931 5.4873C19.9382 5.43126 19.9347 5.3743 19.9206 5.31968C19.9065 5.26505 19.8822 5.21384 19.849 5.16896C19.8157 5.12408 19.7743 5.08642 19.727 5.05812C19.6798 5.02983 19.6276 5.01146 19.5734 5.00406C19.5193 4.99666 19.4643 5.00038 19.4115 5.015C19.3588 5.02962 19.3093 5.05487 19.266 5.08929C19.2227 5.12371 19.1863 5.16663 19.1591 5.21559L17.1366 8.84204C15.5901 8.11129 13.8531 7.70439 11.9998 7.70439C10.1465 7.70439 8.40973 8.11188 6.86319 8.84204L4.84094 5.21559C4.8137 5.16659 4.77739 5.12363 4.7341 5.08917C4.69081 5.0547 4.64138 5.02941 4.58864 5.01474C4.5359 5.00007 4.48088 4.9963 4.42674 5.00366C4.37259 5.01101 4.32037 5.02935 4.27307 5.05761C4.22578 5.08587 4.18432 5.12351 4.15109 5.16837C4.11785 5.21323 4.09348 5.26443 4.07937 5.31905C4.06526 5.37367 4.06169 5.43063 4.06886 5.48668C4.07603 5.54273 4.0938 5.59676 4.12116 5.6457L6.11856 9.2275C2.68893 11.1587 0.343133 14.7532 0 19H24C23.6565 14.7532 21.3109 11.1587 17.8814 9.2275Z" fill="#3DDC84"/>
</svg>
