<svg width="36" height="36" viewBox="0 0 36 36" fill="none" xmlns="http://www.w3.org/2000/svg">
<path fill-rule="evenodd" clip-rule="evenodd" d="M7.33059 7.33059C5.5 9.16116 5.5 12.1074 5.5 18C5.5 23.8925 5.5 26.8389 7.33059 28.6694C9.16116 30.5 12.1074 30.5 18 30.5C23.8925 30.5 26.8389 30.5 28.6694 28.6694C30.5 26.8389 30.5 23.8925 30.5 18C30.5 12.1074 30.5 9.16116 28.6694 7.33059C26.8389 5.5 23.8925 5.5 18 5.5C12.1074 5.5 9.16116 5.5 7.33059 7.33059ZM19.8601 11.0574C20.3602 11.1914 20.657 11.7055 20.523 12.2056L17.2877 24.2796C17.1537 24.7797 16.6396 25.0766 16.1395 24.9426C15.6394 24.8085 15.3426 24.2945 15.4766 23.7944L18.7119 11.7203C18.8459 11.2202 19.36 10.9234 19.8601 11.0574ZM21.7121 13.5871C22.0782 13.221 22.6717 13.221 23.0379 13.5871L23.2984 13.8475C24.0925 14.6416 24.7547 15.3038 25.2097 15.9002C25.6901 16.5297 26.027 17.1949 26.027 18C26.027 18.8051 25.6901 19.4702 25.2097 20.0997C24.7547 20.6961 24.0925 21.3584 23.2984 22.1525L23.0379 22.4129C22.6717 22.779 22.0782 22.779 21.7121 22.4129C21.346 22.0467 21.346 21.4532 21.7121 21.0871L21.9265 20.8726C22.7786 20.0205 23.3496 19.4467 23.7191 18.9624C24.0721 18.4997 24.152 18.2304 24.152 18C24.152 17.7696 24.0721 17.5002 23.7191 17.0376C23.3496 16.5532 22.7786 15.9795 21.9265 15.1274L21.7121 14.9129C21.346 14.5468 21.346 13.9532 21.7121 13.5871ZM12.9623 13.5871C13.3284 13.221 13.922 13.221 14.2881 13.5871C14.6543 13.9532 14.6543 14.5468 14.2881 14.9129L14.0737 15.1274C13.2216 15.9795 12.6506 16.5532 12.2811 17.0376C11.9281 17.5002 11.8483 17.7696 11.8483 18C11.8483 18.2304 11.9281 18.4997 12.2811 18.9624C12.6506 19.4467 13.2216 20.0205 14.0737 20.8726L14.2881 21.0871C14.6543 21.4532 14.6543 22.0467 14.2881 22.4129C13.922 22.779 13.3284 22.779 12.9623 22.4129L12.7019 22.1525C11.9077 21.3584 11.2455 20.6961 10.7904 20.0997C10.3101 19.4702 9.97326 18.8051 9.97326 18C9.97326 17.1949 10.3101 16.5297 10.7904 15.9002C11.2455 15.3038 11.9077 14.6416 12.7019 13.8475L12.9623 13.5871Z" fill="white"/>
</svg>
