<svg width="36" height="36" viewBox="0 0 36 36" fill="none" xmlns="http://www.w3.org/2000/svg">
<path d="M5.7026 13.6246C5.5 15.0043 5.5 16.8119 5.5 19.25C5.5 23.964 5.5 26.3211 6.96446 27.7855C8.42894 29.25 10.7859 29.25 15.5 29.25H20.5C25.214 29.25 27.5711 29.25 29.0355 27.7855C30.5 26.3211 30.5 23.964 30.5 19.25C30.5 16.8121 30.5 15.0046 30.2974 13.6249C27.4516 15.4747 25.6276 16.6544 23.9376 17.3809V18.0001C23.9376 18.5179 23.5179 18.9376 23.0001 18.9376C22.4892 18.9376 22.0737 18.5289 22.0629 18.0206C19.4 18.7226 16.6002 18.7226 13.9374 18.0206C13.9265 18.5289 13.511 18.9376 13.0001 18.9376C12.4823 18.9376 12.0626 18.5179 12.0626 18.0001V17.3808C10.3725 16.6543 8.54851 15.4745 5.7026 13.6246Z" fill="white"/>
<path fill-rule="evenodd" clip-rule="evenodd" d="M16.2267 5.8125H16.2012C16.0592 5.81248 15.9488 5.81247 15.8443 5.81879C14.5188 5.89908 13.3581 6.73569 12.8627 7.96783C12.8235 8.06549 12.7589 8.25945 12.7128 8.39782L12.7079 8.41236C12.579 8.76226 12.3463 9.0653 12.0769 9.28168C11.7926 9.29088 11.521 9.30275 11.2614 9.31807C9.20646 9.4393 7.90238 9.77653 6.96443 10.7145C6.65861 11.0203 6.41664 11.3651 6.22522 11.7621C6.29718 11.7866 6.36731 11.8204 6.43398 11.8637C9.05934 13.5702 10.7088 14.6376 12.0794 15.3223C12.1625 14.8896 12.5431 14.5626 13.0001 14.5626C13.5178 14.5626 13.9376 14.9824 13.9376 15.5001V16.0725C16.5868 16.872 19.4132 16.872 22.0626 16.0725V15.5001C22.0626 14.9824 22.4823 14.5626 23.0001 14.5626C23.4571 14.5626 23.8377 14.8896 23.9207 15.3224C25.2913 14.6377 26.9408 13.5703 29.5663 11.8637C29.633 11.8205 29.703 11.7867 29.7748 11.7622C29.5833 11.3651 29.3413 11.0203 29.0355 10.7145C28.0976 9.77653 26.7935 9.4393 24.7386 9.31807C24.4921 9.30353 24.2348 9.29209 23.9662 9.2831C23.9492 9.26932 23.9322 9.25508 23.9152 9.24039C23.6143 8.98044 23.3791 8.63764 23.2605 8.3161L23.2566 8.3043C23.2117 8.1697 23.1768 8.06494 23.1377 7.96783C22.6425 6.73569 21.4817 5.89908 20.1562 5.81879C20.0517 5.81247 19.9412 5.81248 19.7993 5.8125H16.2267ZM21.522 9.01962L21.5163 9.00619L21.5102 8.99108L21.5046 8.97614L21.5 8.96372L21.4977 8.95745L21.4925 8.94216L21.4877 8.92805L21.4851 8.92021L21.4816 8.90979L21.4788 8.90099L21.4766 8.89388C21.4275 8.74635 21.4123 8.70255 21.3981 8.66719C21.173 8.10714 20.6453 7.72685 20.0428 7.69037C20.0025 7.68793 19.9531 7.6875 19.7738 7.6875H16.2267C16.0475 7.6875 15.998 7.68793 15.9577 7.69037C15.3553 7.72685 14.8277 8.10701 14.6025 8.66693L14.5992 8.67565L14.5893 8.70307C14.581 8.7263 14.5709 8.75537 14.5592 8.78945C14.5386 8.84993 14.5154 8.91933 14.4919 8.98983L14.4896 8.99722L14.4868 9.00602L14.4834 9.01643L14.4807 9.02426L14.476 9.03839L14.4707 9.05369L14.4684 9.05995L14.4639 9.07239L14.4582 9.08734L14.4521 9.10249L14.4469 9.11488L14.446 9.1167C14.4286 9.16152 14.4102 9.20623 14.3908 9.2508C14.7453 9.25 15.1148 9.25 15.5 9.25H20.5C20.8893 9.25 21.2626 9.25 21.6206 9.25083C21.585 9.17445 21.5521 9.0973 21.522 9.01962Z" fill="white"/>
</svg>
