<svg width="36" height="36" viewBox="0 0 36 36" fill="none" xmlns="http://www.w3.org/2000/svg">
<path d="M32.0625 27.375C31.5 27.375 31.125 27 31.125 26.4375V14.25C31.125 13.6875 31.5 13.3125 32.0625 13.3125C32.625 13.3125 33 13.6875 33 14.25V26.4375C33 27 32.625 27.375 32.0625 27.375Z" fill="white"/>
<path d="M18 22.6875C17.8125 22.6875 17.7188 22.6875 17.5312 22.5937L3.46875 15.0937C3.1875 14.9062 3 14.625 3 14.25C3 13.875 3.1875 13.5938 3.46875 13.4063L17.5312 5.90625C17.8125 5.71875 18.0937 5.71875 18.375 5.90625L32.4375 13.4063C32.7187 13.5938 32.9062 13.875 32.9062 14.25C32.9062 14.625 32.7187 14.9062 32.4375 15.0937L18.375 22.5937C18.2812 22.6875 18.1875 22.6875 18 22.6875Z" fill="white"/>
<path d="M19.3125 24.1875C18.9375 24.4687 18.4688 24.5625 18 24.5625C17.5312 24.5625 17.0625 24.4687 16.6875 24.1875L8.625 19.9688V23.625C8.625 26.5312 13.2188 29.25 18 29.25C22.7812 29.25 27.375 26.5312 27.375 23.625V19.9688L19.3125 24.1875Z" fill="white"/>
</svg>
