<svg width="32" height="32" viewBox="0 0 32 32" fill="none" xmlns="http://www.w3.org/2000/svg">
<mask id="mask0_2115_11" style="mask-type:luminance" maskUnits="userSpaceOnUse" x="4" y="0" width="24" height="32">
<path d="M28 0H4V32H28V0Z" fill="white"/>
</mask>
<g mask="url(#mask0_2115_11)">
<path d="M25.6333 12.0731C26.1274 13.2837 26.4 14.609 26.4 16H28C28 14.3982 27.6857 12.8678 27.1147 11.4685L25.6333 12.0731ZM26.4 16C26.4 16.7389 26.3231 17.459 26.1771 18.153L27.7427 18.4825C27.9115 17.6807 28 16.8503 28 16H26.4ZM26.1771 18.153C25.3322 22.1682 22.1683 25.3322 18.153 26.1771L18.4825 27.7427C23.1184 26.7673 26.7673 23.1184 27.7427 18.4825L26.1771 18.153ZM18.153 26.1771C17.459 26.3231 16.7389 26.4 16 26.4V28C16.8503 28 17.6807 27.9115 18.4825 27.7427L18.153 26.1771ZM16 26.4C15.261 26.4 14.541 26.3231 13.847 26.1771L13.5175 27.7427C14.3191 27.9115 15.1497 28 16 28V26.4ZM5.6 16C5.6 14.6079 5.87308 13.2816 6.36785 12.0702L4.88663 11.4652C4.31477 12.8654 4 14.3969 4 16H5.6ZM13.847 26.1771C9.83172 25.3322 6.66786 22.1682 5.82297 18.153L4.25725 18.4825C5.23276 23.1184 8.88157 26.7673 13.5175 27.7427L13.847 26.1771ZM5.82297 18.153C5.67694 17.459 5.6 16.7389 5.6 16H4C4 16.8503 4.08857 17.6807 4.25725 18.4825L5.82297 18.153ZM6.36785 12.0702C7.65554 8.9175 10.4467 6.53845 13.847 5.82297L13.5175 4.25725C9.58968 5.08375 6.37194 7.8287 4.88663 11.4652L6.36785 12.0702ZM13.847 5.82297C14.541 5.67694 15.261 5.6 16 5.6V4C15.1497 4 14.3191 4.08857 13.5175 4.25725L13.847 5.82297ZM16 5.6C16.7389 5.6 17.459 5.67694 18.153 5.82297L18.4825 4.25725C17.6807 4.08857 16.8503 4 16 4V5.6ZM18.153 5.82297C21.5542 6.53867 24.3461 8.91893 25.6333 12.0731L27.1147 11.4685C25.63 7.83036 22.4115 5.084 18.4825 4.25725L18.153 5.82297ZM17.5556 5.2833C17.8647 6.25216 19.0096 9.97996 19.4789 13.4061L21.0641 13.1889C20.5749 9.61775 19.3934 5.77957 19.0799 4.79693L17.5556 5.2833ZM19.4789 13.4061C19.6048 14.3245 19.68 15.2073 19.68 16H21.28C21.28 15.1126 21.1963 14.1536 21.0641 13.1889L19.4789 13.4061ZM26.0503 11.0426C24.8205 11.4156 22.5102 12.0708 20.1264 12.5108L20.4167 14.0843C22.8849 13.6287 25.2596 12.9544 26.5148 12.5737L26.0503 11.0426ZM20.1264 12.5108C18.6804 12.7776 17.2351 12.96 16 12.96V14.56C17.3732 14.56 18.9259 14.3594 20.4167 14.0843L20.1264 12.5108ZM19.68 16C19.68 17.1743 19.5151 18.5395 19.269 19.9157L20.8441 20.1973C21.0983 18.7754 21.28 17.3069 21.28 16H19.68ZM19.269 19.9157C18.7297 22.9325 17.8237 25.8766 17.5556 26.7167L19.0799 27.2031C19.3547 26.342 20.286 23.3187 20.8441 20.1973L19.269 19.9157ZM26.7167 17.5556C25.8766 17.8237 22.9325 18.7297 19.9157 19.269L20.1973 20.8441C23.3187 20.286 26.342 19.3547 27.2031 19.0799L26.7167 17.5556ZM19.9157 19.269C18.5395 19.5151 17.1743 19.68 16 19.68V21.28C17.3069 21.28 18.7754 21.0983 20.1973 20.8441L19.9157 19.269ZM16 19.68C14.8257 19.68 13.4605 19.5151 12.0842 19.269L11.8026 20.8441C13.2246 21.0983 14.6931 21.28 16 21.28V19.68ZM12.0842 19.269C9.06748 18.7297 6.12337 17.8237 5.2833 17.5556L4.79693 19.0799C5.65799 19.3547 8.68131 20.286 11.8026 20.8441L12.0842 19.269ZM10.72 16C10.72 17.3069 10.9017 18.7754 11.1559 20.1973L12.7309 19.9157C12.4849 18.5395 12.32 17.1743 12.32 16H10.72ZM11.1559 20.1973C11.714 23.3187 12.6454 26.342 12.9201 27.2031L14.4444 26.7167C14.1763 25.8766 13.2703 22.9325 12.7309 19.9157L11.1559 20.1973ZM12.9201 4.79693C12.6066 5.77957 11.4251 9.61775 10.9358 13.1889L12.521 13.4061C12.9904 9.97996 14.1353 6.25216 14.4444 5.2833L12.9201 4.79693ZM10.9358 13.1889C10.8037 14.1536 10.72 15.1126 10.72 16H12.32C12.32 15.2073 12.3952 14.3245 12.521 13.4061L10.9358 13.1889ZM16 12.96C14.7649 12.96 13.3196 12.7776 11.8736 12.5108L11.5832 14.0843C13.0741 14.3594 14.6268 14.56 16 14.56V12.96ZM11.8736 12.5108C9.48892 12.0707 7.17782 11.4151 5.94834 11.0422L5.4839 12.5733C6.73867 12.9539 9.11421 13.6285 11.5832 14.0843L11.8736 12.5108ZM26.0053 11.0608C26.018 11.0542 26.0336 11.0477 26.0503 11.0426L26.5148 12.5737C26.5952 12.5493 26.6708 12.5181 26.7426 12.4808L26.0053 11.0608ZM5.20987 12.4502C5.2941 12.5017 5.38547 12.5434 5.4839 12.5733L5.94834 11.0422C5.98382 11.0529 6.01651 11.0681 6.04462 11.0852L5.20987 12.4502Z" fill="white"/>
</g>
</svg>
