<svg width="32" height="32" viewBox="0 0 32 32" fill="none" xmlns="http://www.w3.org/2000/svg">
<path fill-rule="evenodd" clip-rule="evenodd" d="M16 5C22.0753 5 27 10.0489 27 16.2782C27 21.2601 23.8518 25.4863 19.4837 26.979C18.926 27.0901 18.728 26.7379 18.728 26.4376C18.728 26.0658 18.7412 24.8515 18.7412 23.3423C18.7412 22.2907 18.3892 21.6043 17.9943 21.2545C20.444 20.9751 23.018 20.0213 23.018 15.6895C23.018 14.4575 22.5912 13.4522 21.885 12.6624C21.9994 12.3775 22.3767 11.2303 21.7772 9.67714C21.7772 9.67714 20.8554 9.37494 18.7555 10.8335C17.8766 10.5838 16.935 10.4582 16 10.4538C15.065 10.4582 14.1245 10.5838 13.2467 10.8335C11.1446 9.37494 10.2206 9.67714 10.2206 9.67714C9.6233 11.2303 10.0006 12.3775 10.1139 12.6624C9.411 13.4522 8.9809 14.4575 8.9809 15.6895C8.9809 20.0103 11.5494 20.9788 13.9925 21.2637C13.6779 21.5453 13.393 22.042 13.294 22.7713C12.667 23.0595 11.0742 23.5583 10.093 21.8346C10.093 21.8346 9.5111 20.751 8.4067 20.6718C8.4067 20.6718 7.3342 20.6575 8.3319 21.3571C8.3319 21.3571 9.0524 21.7036 9.5529 23.0071C9.5529 23.0071 10.1986 25.0201 13.2588 24.3381C13.2643 25.2808 13.2742 26.1692 13.2742 26.4376C13.2742 26.7357 13.0718 27.0846 12.5229 26.9801C8.15149 25.4896 5 21.2612 5 16.2782C5 10.0489 9.92579 5 16 5Z" fill="white"/>
</svg>
