<svg width="24" height="24" viewBox="0 0 24 24" fill="none" xmlns="http://www.w3.org/2000/svg">
<mask id="mask0_2101_53" style="mask-type:luminance" maskUnits="userSpaceOnUse" x="0" y="0" width="24" height="24">
<path d="M24 0H0V24H24V0Z" fill="white"/>
</mask>
<g mask="url(#mask0_2101_53)">
<path d="M21.6333 8.07307C22.1274 9.28367 22.4 10.609 22.4 12H24C24 10.3982 23.6857 8.86776 23.1147 7.46852L21.6333 8.07307ZM22.4 12C22.4 12.7389 22.3231 13.459 22.1771 14.153L23.7427 14.4825C23.9115 13.6807 24 12.8503 24 12H22.4ZM22.1771 14.153C21.3322 18.1682 18.1683 21.3322 14.153 22.1771L14.4825 23.7427C19.1184 22.7673 22.7673 19.1184 23.7427 14.4825L22.1771 14.153ZM14.153 22.1771C13.459 22.3231 12.7389 22.4 12 22.4V24C12.8503 24 13.6807 23.9115 14.4825 23.7427L14.153 22.1771ZM12 22.4C11.261 22.4 10.541 22.3231 9.847 22.1771L9.51754 23.7427C10.3191 23.9115 11.1497 24 12 24V22.4ZM1.6 12C1.6 10.6079 1.87308 9.28159 2.36785 8.07023L0.886635 7.46525C0.314773 8.86536 0 10.3969 0 12H1.6ZM9.847 22.1771C5.83172 21.3322 2.66786 18.1682 1.82297 14.153L0.257251 14.4825C1.23276 19.1184 4.88157 22.7673 9.51754 23.7427L9.847 22.1771ZM1.82297 14.153C1.67694 13.459 1.6 12.7389 1.6 12H0C0 12.8503 0.0885654 13.6807 0.257251 14.4825L1.82297 14.153ZM2.36785 8.07023C3.65554 4.9175 6.44673 2.53845 9.84699 1.82297L9.51754 0.257251C5.58968 1.08375 2.37194 3.8287 0.886635 7.46525L2.36785 8.07023ZM9.84699 1.82297C10.541 1.67694 11.261 1.6 12 1.6V0C11.1497 0 10.3191 0.0885654 9.51754 0.257251L9.84699 1.82297ZM12 1.6C12.7389 1.6 13.459 1.67694 14.153 1.82297L14.4825 0.257252C13.6807 0.0885664 12.8503 0 12 0V1.6ZM14.153 1.82297C17.5542 2.53867 20.3461 4.91893 21.6333 8.07307L23.1147 7.46852C21.63 3.83036 18.4115 1.084 14.4825 0.257252L14.153 1.82297ZM13.5556 1.2833C13.8647 2.25216 15.0096 5.97996 15.4789 9.40608L17.0641 9.18892C16.5749 5.61775 15.3934 1.77957 15.0799 0.796928L13.5556 1.2833ZM15.4789 9.40608C15.6048 10.3245 15.68 11.2073 15.68 12H17.28C17.28 11.1126 17.1963 10.1536 17.0641 9.18892L15.4789 9.40608ZM22.0503 7.04258C20.8205 7.41559 18.5102 8.07083 16.1264 8.51078L16.4167 10.0843C18.8849 9.62869 21.2596 8.95438 22.5148 8.57371L22.0503 7.04258ZM16.1264 8.51078C14.6804 8.77764 13.2351 8.96 12 8.96V10.56C13.3732 10.56 14.9259 10.3594 16.4167 10.0843L16.1264 8.51078ZM15.68 12C15.68 13.1743 15.5151 14.5395 15.269 15.9157L16.8441 16.1973C17.0983 14.7754 17.28 13.3069 17.28 12H15.68ZM15.269 15.9157C14.7297 18.9325 13.8237 21.8766 13.5556 22.7167L15.0799 23.2031C15.3547 22.342 16.286 19.3187 16.8441 16.1973L15.269 15.9157ZM22.7167 13.5556C21.8766 13.8237 18.9325 14.7297 15.9157 15.269L16.1973 16.8441C19.3187 16.286 22.342 15.3547 23.2031 15.0799L22.7167 13.5556ZM15.9157 15.269C14.5395 15.5151 13.1743 15.68 12 15.68V17.28C13.3069 17.28 14.7754 17.0983 16.1973 16.8441L15.9157 15.269ZM12 15.68C10.8257 15.68 9.46051 15.5151 8.08424 15.269L7.80262 16.8441C9.22461 17.0983 10.6931 17.28 12 17.28V15.68ZM8.08424 15.269C5.06748 14.7297 2.12337 13.8237 1.2833 13.5556L0.796928 15.0799C1.65799 15.3547 4.68131 16.286 7.80262 16.8441L8.08424 15.269ZM6.72 12C6.72 13.3069 6.90168 14.7754 7.15592 16.1973L8.73094 15.9157C8.48486 14.5395 8.32 13.1743 8.32 12H6.72ZM7.15592 16.1973C7.71401 19.3187 8.64538 22.342 8.92012 23.2031L10.4444 22.7167C10.1763 21.8766 9.27034 18.9325 8.73094 15.9157L7.15592 16.1973ZM8.92012 0.796928C8.60658 1.77957 7.42507 5.61775 6.93584 9.18892L8.52102 9.40608C8.99039 5.97996 10.1353 2.25216 10.4444 1.2833L8.92012 0.796928ZM6.93584 9.18892C6.80369 10.1536 6.72 11.1126 6.72 12H8.32C8.32 11.2073 8.39522 10.3245 8.52102 9.40608L6.93584 9.18892ZM12 8.96C10.7649 8.96 9.31957 8.77764 7.87362 8.51078L7.58324 10.0843C9.0741 10.3594 10.6268 10.56 12 10.56V8.96ZM7.87362 8.51078C5.48892 8.07067 3.17782 7.41513 1.94834 7.04219L1.4839 8.5733C2.73867 8.9539 5.11421 9.62853 7.58324 10.0843L7.87362 8.51078ZM22.0053 7.0608C22.018 7.05419 22.0336 7.04767 22.0503 7.04258L22.5148 8.57371C22.5952 8.54931 22.6708 8.51807 22.7426 8.48079L22.0053 7.0608ZM1.20987 8.45023C1.2941 8.50174 1.38547 8.54345 1.4839 8.5733L1.94834 7.04219C1.98382 7.05295 2.01651 7.06805 2.04462 7.08525L1.20987 8.45023Z" fill="white"/>
</g>
</svg>
