<svg width="36" height="36" viewBox="0 0 36 36" fill="none" xmlns="http://www.w3.org/2000/svg">
<g clip-path="url(#clip0_2047_24)">
<path d="M12.1667 16.75L11.3334 19.3333H13L12.1667 16.75Z" fill="white"/>
<path d="M28.25 5.5H14.9166V9.66667H18.25V11.3333H7.41663C5.99996 11.3333 4.91663 12.4167 4.91663 13.8333V23C4.91663 24.4167 5.99996 25.5 7.41663 25.5H8.24996V29.75L13.5 25.5H19.0833V19.6667H28.25C29.6666 19.6667 30.75 18.5833 30.75 17.1667V8C30.75 6.58333 29.6666 5.5 28.25 5.5ZM13.9166 22.0833L13.5 20.75H10.9166L10.4166 22.0833H8.41663L11.1666 14.6667H13.1666L15.9166 22.0833H13.9166ZM26.5833 15.5V17.1667C25.5 17.1667 24.3333 16.8333 23.3333 16.3333C22.3333 16.8333 21.1666 17.0833 20 17.1667L19.9166 15.5C20.5 15.5 21.0833 15.4167 21.6666 15.25C20.9166 14.5 20.4166 13.5833 20.1666 12.5833H21.9166C22.1666 13.3333 22.6666 13.9167 23.25 14.4167C24.1666 13.6667 24.75 12.5833 24.8333 11.3333H19.8333V9.66667H22.3333V8H24V9.66667H26.75L26.8333 10.5C26.9166 12.25 26.25 14 25 15.25C25.5833 15.4167 26.0833 15.5 26.5833 15.5Z" fill="white"/>
</g>
<defs>
<clipPath id="clip0_2047_24">
<rect width="30" height="30" fill="white" transform="translate(3 3)"/>
</clipPath>
</defs>
</svg>
