<svg width="32" height="32" viewBox="0 0 32 32" fill="none" xmlns="http://www.w3.org/2000/svg">
<path d="M25.2812 5H6.71875C5.76914 5 5 5.76914 5 6.71875V25.2812C5 26.2309 5.76914 27 6.71875 27H25.2812C26.2309 27 27 26.2309 27 25.2812V6.71875C27 5.76914 26.2309 5 25.2812 5ZM12.9234 20.602H10.7793V13.7398H12.9234V20.602ZM11.7934 12.8805H11.7762C10.9984 12.8805 10.4957 12.3563 10.4957 11.6902C10.4957 11.0113 11.0156 10.5 11.8062 10.5C12.5969 10.5 13.0824 11.0113 13.0996 11.6902C13.1039 12.352 12.6012 12.8805 11.7934 12.8805ZM21.5 20.602H19.068V17.0527C19.068 16.1246 18.6898 15.4887 17.852 15.4887C17.2117 15.4887 16.8551 15.9184 16.6918 16.3309C16.6316 16.477 16.6402 16.6832 16.6402 16.8937V20.602H14.2297C14.2297 20.602 14.2598 14.3113 14.2297 13.7398H16.6402V14.8184C16.782 14.3457 17.5512 13.6754 18.7801 13.6754C20.3055 13.6754 21.5 14.6637 21.5 16.7863V20.602Z" fill="white"/>
</svg>
