<svg width="32" height="32" viewBox="0 0 32 32" fill="none" xmlns="http://www.w3.org/2000/svg">
<path fill-rule="evenodd" clip-rule="evenodd" d="M7.95738 5.33325H24.0427C24.6275 5.33324 25.1322 5.33323 25.5499 5.36172C25.9896 5.39173 26.4295 5.45773 26.8642 5.63773C27.8442 6.04371 28.623 6.82241 29.0288 7.80252C29.2088 8.23709 29.2748 8.67697 29.305 9.11675C29.3334 9.53443 29.3334 10.0391 29.3334 10.6239V21.3759C29.3334 21.9607 29.3334 22.4654 29.305 22.8831C29.2748 23.3228 29.2088 23.7627 29.0288 24.1974C28.623 25.1774 27.8442 25.9562 26.8642 26.3621C26.4295 26.5421 25.9896 26.6081 25.5499 26.6382C25.1322 26.6666 24.6275 26.6666 24.0427 26.6666H7.95737C7.3725 26.6666 6.86786 26.6666 6.45018 26.6382C6.01041 26.6081 5.57053 26.5421 5.13595 26.3621C4.15585 25.9562 3.37714 25.1774 2.97117 24.1974C2.79117 23.7627 2.72517 23.3228 2.69515 22.8831C2.66666 22.4654 2.66667 21.9607 2.66669 21.3759V10.6239C2.66667 10.0391 2.66666 9.53443 2.69515 9.11675C2.72517 8.67697 2.79117 8.23709 2.97117 7.80252C3.37714 6.82241 4.15585 6.04371 5.13595 5.63773C5.57053 5.45773 6.01041 5.39173 6.45018 5.36172C6.86786 5.33323 7.37251 5.33324 7.95738 5.33325ZM5.75662 8.37028C6.24154 7.81611 7.08389 7.75995 7.63807 8.24485L15.122 14.7933C15.6247 15.2331 16.3754 15.2331 16.878 14.7933L24.362 8.24485C24.9162 7.75995 25.7586 7.81611 26.2434 8.37028C26.7283 8.92447 26.6722 9.76681 26.118 10.2517L18.634 16.8002C17.1259 18.1198 14.8742 18.1198 13.366 16.8002L5.88206 10.2517C5.32787 9.76681 5.27171 8.92447 5.75662 8.37028Z" fill="white"/>
</svg>
