<svg width="48" height="48" viewBox="0 0 48 48" fill="none" xmlns="http://www.w3.org/2000/svg">
<path d="M27.456 41.4203C20.3811 43.315 11.8977 40.4255 7.39851 34.7905C7.18712 34.5256 7.05367 34.2072 7.01312 33.8708C6.97256 33.5344 7.02649 33.1934 7.16888 32.8859C7.31127 32.5784 7.53649 32.3166 7.81934 32.1298C8.10218 31.9429 8.43148 31.8384 8.77038 31.828C16.0481 31.6126 20.94 29.1173 23.6947 24.3476C26.4531 19.5779 26.1681 14.0963 22.7174 7.69107C22.5565 7.39251 22.4819 7.05506 22.5022 6.71655C22.5224 6.37803 22.6366 6.05184 22.832 5.77455C23.0273 5.49727 23.2962 5.27984 23.6083 5.14666C23.9204 5.01348 24.2634 4.96981 24.599 5.02055C31.7305 6.09752 38.4766 11.9935 40.3727 19.065C42.985 28.8015 37.1997 38.8118 27.456 41.4203Z" fill="white"/>
</svg>
