<svg width="32" height="32" viewBox="0 0 32 32" fill="none" xmlns="http://www.w3.org/2000/svg">
<path fill-rule="evenodd" clip-rule="evenodd" d="M9.36482 7H22.6352C23.1177 6.99999 23.534 6.99998 23.8786 7.02402C24.2414 7.04934 24.6043 7.10503 24.9629 7.25691C25.7714 7.59945 26.4139 8.25648 26.7488 9.08344C26.8973 9.45012 26.9517 9.82126 26.9766 10.1923C27 10.5447 27 10.9705 27 11.464V20.536C27 21.0294 27 21.4552 26.9766 21.8077C26.9517 22.1787 26.8973 22.5499 26.7488 22.9166C26.4139 23.7435 25.7714 24.4006 24.9629 24.7431C24.6043 24.8949 24.2414 24.9506 23.8786 24.976C23.534 25 23.1177 25 22.6352 25H9.36481C8.8823 25 8.46597 25 8.12138 24.976C7.75857 24.9506 7.39567 24.8949 7.03715 24.7431C6.22856 24.4006 5.58612 23.7435 5.2512 22.9166C5.1027 22.5499 5.04825 22.1787 5.02349 21.8077C4.99998 21.4552 4.99999 21.0294 5 20.536V11.464C4.99999 10.9705 4.99998 10.5447 5.02349 10.1923C5.04825 9.82126 5.1027 9.45012 5.2512 9.08344C5.58612 8.25648 6.22856 7.59945 7.03715 7.25691C7.39567 7.10503 7.75857 7.04934 8.12138 7.02402C8.46597 6.99998 8.88231 6.99999 9.36482 7ZM7.5492 9.56249C7.94925 9.09491 8.64419 9.04752 9.10139 9.45666L15.2757 14.9819C15.6904 15.353 16.3096 15.353 16.7243 14.9819L22.8986 9.45666C23.3558 9.04752 24.0508 9.09491 24.4508 9.56249C24.8508 10.0301 24.8045 10.7408 24.3473 11.15L18.1731 16.6752C16.9288 17.7886 15.0712 17.7886 13.827 16.6752L7.65268 11.15C7.19548 10.7408 7.14915 10.0301 7.5492 9.56249Z" fill="white"/>
</svg>
