<svg width="56" height="56" viewBox="0 0 56 56" fill="none" xmlns="http://www.w3.org/2000/svg">
<rect width="56" height="56" fill="white"/>
<path d="M46.4924 15.0625C45.8139 12.1375 43.0999 10 39.9336 10H16.1862C14.6703 10.0004 13.1964 10.496 11.9911 11.4106C10.7857 12.3252 9.91557 13.6082 9.51429 15.0625L7.13955 24.0625C6.68722 25.6375 7.36572 27.2125 8.72271 28.1125L9.17505 28.45C9.85354 28.7875 10.419 29.125 11.0975 29.2375V41.5C11.101 42.6924 11.5787 43.8349 12.4263 44.678C13.2738 45.5212 14.4222 45.9964 15.6208 46H20.9357C22.1342 45.9964 23.2827 45.5212 24.1302 44.678C24.9777 43.8349 25.4554 42.6924 25.459 41.5V37H31.6785V41.5C31.6821 42.6924 32.1598 43.8349 33.0073 44.678C33.8548 45.5212 35.0033 45.9964 36.2018 46H40.499C41.6975 45.9964 42.846 45.5212 43.6935 44.678C44.541 43.8349 45.0187 42.6924 45.0223 41.5V29.2375C45.6638 29.1318 46.2784 28.9025 46.8316 28.5625L47.284 28.225C47.9547 27.7853 48.4688 27.1462 48.7531 26.3988C49.0374 25.6514 49.0773 24.8338 48.8671 24.0625L46.4924 15.0625ZM40.7252 41.5H36.2018V37C36.1983 35.8076 35.7206 34.6651 34.873 33.822C34.0255 32.9788 32.8771 32.5036 31.6785 32.5H25.459C24.2604 32.5036 23.112 32.9788 22.2645 33.822C21.417 34.6651 20.9392 35.8076 20.9357 37V41.5H15.6208V28C17.0908 27.4375 18.674 27.6625 20.031 28.45C20.8282 28.9995 21.7751 29.294 22.745 29.294C23.7149 29.294 24.6617 28.9995 25.459 28.45C26.2562 27.9004 27.203 27.606 28.173 27.606C29.1429 27.606 30.0897 27.9004 30.8869 28.45C31.6842 28.9995 32.631 29.294 33.6009 29.294C34.5709 29.294 35.5177 28.9995 36.3149 28.45C36.9568 28.0215 37.6946 27.7563 38.4636 27.6778C39.2326 27.5994 40.0092 27.71 40.7252 28V41.5ZM44.0046 24.7375C42.4729 23.6934 40.6595 23.1346 38.8027 23.1346C36.946 23.1346 35.1326 23.6934 33.6009 24.7375C33.5811 24.7636 33.5555 24.7848 33.5261 24.7993C33.4966 24.8139 33.4642 24.8215 33.4313 24.8215C33.3984 24.8215 33.366 24.8139 33.3366 24.7993C33.3071 24.7848 33.2815 24.7636 33.2617 24.7375C31.73 23.6934 29.9167 23.1346 28.0599 23.1346C26.2031 23.1346 24.3898 23.6934 22.8581 24.7375C22.8382 24.7636 22.8126 24.7848 22.7832 24.7993C22.7537 24.8139 22.7213 24.8215 22.6884 24.8215C22.6556 24.8215 22.6231 24.8139 22.5937 24.7993C22.5643 24.7848 22.5386 24.7636 22.5188 24.7375C20.9871 23.6934 19.1738 23.1346 17.317 23.1346C15.4602 23.1346 13.6469 23.6934 12.1152 24.7375C12.0954 24.7636 12.0697 24.7848 12.0403 24.7993C12.0109 24.8139 11.9785 24.8215 11.9456 24.8215C11.9127 24.8215 11.8803 24.8139 11.8508 24.7993C11.8214 24.7848 11.7958 24.7636 11.776 24.7375L13.9245 16.1875C14.1507 15.175 15.0554 14.5 16.1862 14.5H40.0467C40.5447 14.4948 41.0294 14.6595 41.4203 14.9665C41.8112 15.2735 42.0847 15.7044 42.1952 16.1875L44.3438 24.7375C44.3438 24.7375 44.1176 24.85 44.0046 24.7375Z" fill="black"/>
</svg>
