<svg width="56" height="56" viewBox="0 0 56 56" fill="none" xmlns="http://www.w3.org/2000/svg">
<rect width="56" height="56" fill="white"/>
<path d="M44.8 24.3377C44.8 22.5554 44.092 20.8461 42.8317 19.5859C41.5715 18.3257 39.8623 17.6177 38.08 17.6177H17.92C16.1377 17.6177 14.4285 18.3257 13.1683 19.5859C11.9081 20.8461 11.2 22.5554 11.2 24.3377" stroke="black" stroke-width="4" stroke-linecap="round" stroke-linejoin="round"/>
<path d="M44.8 26.46C34.5688 36.54 21.4312 36.54 11.2 26.46" stroke="black" stroke-width="4" stroke-linecap="round" stroke-linejoin="round"/>
<path d="M44.7998 24.3376L43.1198 37.7776C42.8691 39.6068 41.9762 41.287 40.6003 42.5181C39.2245 43.7492 37.4558 44.4509 35.6102 44.4976H20.255C18.4094 44.4509 16.6406 43.7492 15.2648 42.5181C13.889 41.287 12.9961 39.6068 12.7454 37.7776L11.0654 24.3376" stroke="black" stroke-width="4" stroke-linecap="round" stroke-linejoin="round"/>
<path d="M21.2964 17.1471C21.2964 15.3649 22.0044 13.6556 23.2646 12.3954C24.5249 11.1351 26.2341 10.4271 28.0164 10.4271C29.7986 10.4271 31.508 11.1351 32.7681 12.3954C34.0283 13.6556 34.7364 15.3649 34.7364 17.1471" stroke="black" stroke-width="4" stroke-linecap="round" stroke-linejoin="round"/>
</svg>
