<svg width="32" height="32" viewBox="0 0 32 32" fill="none" xmlns="http://www.w3.org/2000/svg">
<path d="M21.9651 5H9.50478C8.12114 5 7 6.12164 7 7.50478V24.4952C7 25.8784 8.12114 27 9.50478 27H21.9641C23.3477 27 24.4689 25.8784 24.4689 24.4952V7.50478C24.4699 6.12164 23.3472 5 21.9651 5ZM9.34748 13.4436C9.34748 12.8565 9.82389 12.3811 10.41 12.3811H10.7817C10.3855 11.9433 10.142 11.3642 10.142 10.7259C10.142 9.36183 11.2486 8.25572 12.6127 8.25572C13.9778 8.25572 15.0834 9.36133 15.0834 10.7264C15.0834 11.3636 14.84 11.9433 14.4427 12.3811H14.7979C15.385 12.3811 15.8604 12.8565 15.8604 13.4436V15.236C15.8604 15.7981 15.4221 16.253 14.871 16.2911H10.3369C9.78582 16.253 9.34748 15.7981 9.34748 15.236V13.4436ZM21.12 23.7438H10.3494C9.79634 23.7438 9.34748 23.2949 9.34748 22.7419C9.34748 22.1888 9.79634 21.74 10.3494 21.74H21.12C21.673 21.74 22.1219 22.1888 22.1219 22.7419C22.1219 23.2949 21.673 23.7438 21.12 23.7438ZM21.12 19.9866H10.3494C9.79634 19.9866 9.34748 19.5378 9.34748 18.9847C9.34748 18.4316 9.79634 17.9828 10.3494 17.9828H21.12C21.673 17.9828 22.1219 18.4316 22.1219 18.9847C22.1219 19.5378 21.673 19.9866 21.12 19.9866ZM21.12 16.2294H17.8637C17.3107 16.2294 16.8618 15.7806 16.8618 15.2275C16.8618 14.6745 17.3107 14.2256 17.8637 14.2256H21.12C21.673 14.2256 22.1219 14.6745 22.1219 15.2275C22.1219 15.7806 21.673 16.2294 21.12 16.2294Z" fill="white"/>
</svg>
