<svg width="48" height="48" viewBox="0 0 48 48" fill="none" xmlns="http://www.w3.org/2000/svg">
<path d="M24.0026 34.503C29.8021 34.503 34.5036 29.8016 34.5036 24.002C34.5036 18.2025 29.8021 13.501 24.0026 13.501C18.203 13.501 13.5016 18.2025 13.5016 24.002C13.5016 29.8016 18.203 34.503 24.0026 34.503Z" fill="white"/>
<path fill-rule="evenodd" clip-rule="evenodd" d="M10.8759 23.9968C10.8759 22.5458 9.70183 21.3717 8.25082 21.3717H5.62508C4.17407 21.3717 3 22.5458 3 23.9968C3 25.4478 4.17407 26.6219 5.62508 26.6219H8.25016C9.70183 26.6219 10.8759 25.4478 10.8759 23.9968Z" fill="white"/>
<path fill-rule="evenodd" clip-rule="evenodd" d="M11.0091 33.2777L9.15054 35.137C8.12479 36.162 8.12479 37.8237 9.15054 38.8488C10.1756 39.8739 11.8373 39.8739 12.8631 38.8488L14.7223 36.9903C15.7474 35.9652 15.7474 34.3028 14.7223 33.2777C13.6959 32.252 12.0348 32.252 11.0091 33.2777Z" fill="white"/>
<path fill-rule="evenodd" clip-rule="evenodd" d="M24.0025 37.1235C22.5515 37.1235 21.3774 38.2975 21.3774 39.7486V42.3743C21.3774 43.8253 22.5515 44.9994 24.0025 44.9994C25.4535 44.9994 26.6276 43.8253 26.6276 42.3743L26.625 39.7486C26.6276 38.2975 25.4509 37.1235 24.0025 37.1235Z" fill="white"/>
<path fill-rule="evenodd" clip-rule="evenodd" d="M36.9935 33.2803C35.9704 32.2526 34.3087 32.2526 33.2836 33.2777C32.2585 34.3028 32.2585 35.9651 33.2836 36.9902L35.1402 38.8462C36.1653 39.8765 37.827 39.8713 38.852 38.8462C39.8771 37.8211 39.8798 36.162 38.852 35.1343L36.9935 33.2803Z" fill="white"/>
<path fill-rule="evenodd" clip-rule="evenodd" d="M42.3802 21.3717L39.7492 21.377C38.3035 21.3717 37.1294 22.5458 37.1294 23.9968C37.1242 25.4478 38.3035 26.6219 39.7492 26.6219H42.375C43.8312 26.6271 45.0001 25.4478 45.0001 23.9968C45.0027 22.5484 43.8312 21.3717 42.3802 21.3717Z" fill="white"/>
<path fill-rule="evenodd" clip-rule="evenodd" d="M36.9935 14.7183L38.8494 12.8618C39.8824 11.834 39.8745 10.175 38.8494 9.14923C37.8263 8.12086 36.1653 8.12086 35.1402 9.14661L33.2836 11.0078C32.2585 12.0283 32.2585 13.6893 33.2836 14.7151C34.3034 15.7467 35.9704 15.7415 36.9935 14.7183Z" fill="white"/>
<path fill-rule="evenodd" clip-rule="evenodd" d="M24.0025 10.87C25.4509 10.8805 26.6276 9.69595 26.6276 8.25018V5.6251C26.6276 4.16884 25.4535 3.00002 24.0025 3.00002C22.5515 2.99477 21.3774 4.16884 21.3774 5.62051L21.3827 8.25084C21.3774 9.69595 22.5515 10.87 24.0025 10.87Z" fill="white"/>
<path fill-rule="evenodd" clip-rule="evenodd" d="M11.0144 14.7158C12.0349 15.7409 13.6913 15.7409 14.7197 14.7131C15.7527 13.6953 15.7474 12.029 14.725 11.0059L12.8684 9.14994C11.838 8.11894 10.1816 8.12681 9.15585 9.14994C8.12222 10.1731 8.12222 11.8341 9.14797 12.8598L11.0144 14.7158Z" fill="white"/>
</svg>
