<svg width="26" height="24" viewBox="0 0 26 24" fill="none" xmlns="http://www.w3.org/2000/svg">
<path d="M1 19.3333C1 18.1943 1 17.6249 1.18269 17.1756C1.42628 16.5767 1.8935 16.1008 2.48156 15.8526C2.92262 15.6666 3.48174 15.6666 4.6 15.6666H21.4C22.5183 15.6666 23.0774 15.6666 23.5185 15.8526C24.1065 16.1008 24.5738 16.5767 24.8174 17.1756C25 17.6249 25 18.1943 25 19.3333C25 20.4723 25 21.0417 24.8174 21.491C24.5738 22.0899 24.1065 22.5658 23.5185 22.8139C23.0774 23 22.5183 23 21.4 23H4.6C3.48174 23 2.92262 23 2.48156 22.8139C1.8935 22.5658 1.42628 22.0899 1.18269 21.491C1 21.0417 1 20.4723 1 19.3333Z" stroke="white" stroke-width="1.6"/>
<path d="M1 12C1 10.8611 1 10.2916 1.18269 9.84233C1.42628 9.24342 1.8935 8.76754 2.48156 8.51944C2.92262 8.33337 3.48174 8.33337 4.6 8.33337H21.4C22.5183 8.33337 23.0774 8.33337 23.5185 8.51944C24.1065 8.76754 24.5738 9.24342 24.8174 9.84233C25 10.2916 25 10.8611 25 12C25 13.139 25 13.7085 24.8174 14.1578C24.5738 14.7566 24.1065 15.2326 23.5185 15.4807C23.0774 15.6667 22.5183 15.6667 21.4 15.6667H4.6C3.48174 15.6667 2.92262 15.6667 2.48156 15.4807C1.8935 15.2326 1.42628 14.7566 1.18269 14.1578C1 13.7085 1 13.139 1 12Z" stroke="white" stroke-width="1.6"/>
<path d="M1 4.66667C1 3.5277 1 2.95822 1.18269 2.50899C1.42628 1.91004 1.8935 1.43417 2.48156 1.18607C2.92262 1 3.48174 1 4.6 1H21.4C22.5183 1 23.0774 1 23.5185 1.18607C24.1065 1.43417 24.5738 1.91004 24.8174 2.50899C25 2.95822 25 3.5277 25 4.66667C25 5.80563 25 6.37511 24.8174 6.82434C24.5738 7.42329 24.1065 7.89916 23.5185 8.14726C23.0774 8.33333 22.5183 8.33333 21.4 8.33333H4.6C3.48174 8.33333 2.92262 8.33333 2.48156 8.14726C1.8935 7.89916 1.42628 7.42329 1.18269 6.82434C1 6.37511 1 5.80563 1 4.66667Z" stroke="white" stroke-width="1.6"/>
<path d="M4.60002 13.2223C5.26277 13.2223 5.80002 12.6751 5.80002 12.0001C5.80002 11.325 5.26277 10.7778 4.60002 10.7778C3.93728 10.7778 3.40002 11.325 3.40002 12.0001C3.40002 12.6751 3.93728 13.2223 4.60002 13.2223Z" fill="white"/>
<path d="M4.60002 5.8889C5.26277 5.8889 5.80002 5.34169 5.80002 4.66668C5.80002 3.99167 5.26277 3.44446 4.60002 3.44446C3.93728 3.44446 3.40002 3.99167 3.40002 4.66668C3.40002 5.34169 3.93728 5.8889 4.60002 5.8889Z" fill="white"/>
<path d="M4.60002 20.5555C5.26277 20.5555 5.80002 20.0083 5.80002 19.3333C5.80002 18.6583 5.26277 18.1111 4.60002 18.1111C3.93728 18.1111 3.40002 18.6583 3.40002 19.3333C3.40002 20.0083 3.93728 20.5555 4.60002 20.5555Z" fill="white"/>
</svg>
