<svg width="32" height="32" viewBox="0 0 32 32" fill="none" xmlns="http://www.w3.org/2000/svg">
<path d="M25.1341 7.15896C22.2318 8.34903 9.78716 13.4524 6.34872 14.8433C4.04274 15.7342 5.39269 16.5696 5.39269 16.5696C5.39269 16.5696 7.36112 17.2377 9.04862 17.7388C10.7359 18.24 11.6358 17.6833 11.6358 17.6833L19.5661 12.3933C22.3783 10.5001 21.7034 12.0591 21.0283 12.7275C19.5661 14.1754 17.1476 16.4582 15.1228 18.2958C14.2229 19.0753 14.6727 19.7435 15.0667 20.0777C16.5289 21.3028 20.5224 23.8085 20.7472 23.9755C21.9353 24.8083 24.2724 26.007 24.6279 23.4744L26.034 14.7321C26.484 11.781 26.9339 9.05243 26.99 8.2729C27.1589 6.37943 25.1341 7.15896 25.1341 7.15896Z" fill="white"/>
</svg>
