<svg width="56" height="56" viewBox="0 0 56 56" fill="none" xmlns="http://www.w3.org/2000/svg">
<rect width="56" height="56" fill="white"/>
<path d="M10.5 26.25C10.5 27.2165 11.2835 28 12.25 28H17.5V22.75C17.5 21.7835 16.7165 21 15.75 21H12.25C11.2835 21 10.5 21.7835 10.5 22.75V26.25Z" fill="#0F0F0F"/>
<path d="M24.5 28H31.5V22.75C31.5 21.7835 30.7165 21 29.75 21H26.25C25.2835 21 24.5 21.7835 24.5 22.75V28Z" fill="#0F0F0F"/>
<path d="M17.5 33.25C17.5 34.2165 18.2835 35 19.25 35H22.75C23.7165 35 24.5 34.2165 24.5 33.25V28H17.5V33.25Z" fill="#0F0F0F"/>
<path d="M38.5 28H43.75C44.7165 28 45.5 27.2165 45.5 26.25V22.75C45.5 21.7835 44.7165 21 43.75 21H40.25C39.2835 21 38.5 21.7835 38.5 22.75V28Z" fill="#0F0F0F"/>
<path d="M31.5 33.25C31.5 34.2165 32.2835 35 33.25 35H36.75C37.7165 35 38.5 34.2165 38.5 33.25V28H31.5V33.25Z" fill="#0F0F0F"/>
<path d="M10.5 40.25C10.5 39.2835 11.2835 38.5 12.25 38.5H43.75C44.7165 38.5 45.5 39.2835 45.5 40.25C45.5 41.2165 44.7165 42 43.75 42H12.25C11.2835 42 10.5 41.2165 10.5 40.25Z" fill="#0F0F0F"/>
<path d="M10.5 15.75C10.5 14.7835 11.2835 14 12.25 14H43.75C44.7165 14 45.5 14.7835 45.5 15.75C45.5 16.7165 44.7165 17.5 43.75 17.5H12.25C11.2835 17.5 10.5 16.7165 10.5 15.75Z" fill="#0F0F0F"/>
</svg>
