<svg width="48" height="48" viewBox="0 0 48 48" fill="none" xmlns="http://www.w3.org/2000/svg">
<g clip-path="url(#clip0_2076_13501)">
<mask id="mask0_2076_13501" style="mask-type:luminance" maskUnits="userSpaceOnUse" x="0" y="0" width="48" height="48">
<path d="M24 48C37.2548 48 48 37.2548 48 24C48 10.7452 37.2548 0 24 0C10.7452 0 0 10.7452 0 24C0 37.2548 10.7452 48 24 48Z" fill="white"/>
</mask>
<g mask="url(#mask0_2076_13501)">
<path d="M0 16.6875L23.8312 14.625L48 16.6875V18.7781L44.2312 23.85L48 29.2219V31.3125L24.1875 33.5062L0 31.3125V29.2219L3.44063 23.6531L0 18.7781V16.6875Z" fill="#D80027"/>
<path d="M0 0H48V16.6875H0V0Z" fill="#338AF3"/>
<path d="M0 18.7781H48V29.2219H0V18.7781Z" fill="#EEEEEE"/>
<path d="M0 31.3125H48V48H0V31.3125Z" fill="#6DA544"/>
<path d="M10.9876 9.90936C10.9863 8.83948 11.3511 7.80137 12.0213 6.96744C12.6915 6.13351 13.6268 5.55394 14.6719 5.32498C14.3422 5.25478 14.0059 5.22021 13.6688 5.22186C13.017 5.23203 12.3744 5.37805 11.7822 5.65059C11.1901 5.92313 10.6612 6.31619 10.2295 6.80468C9.79782 7.29316 9.47276 7.86631 9.2751 8.48753C9.07744 9.10874 9.01153 9.76436 9.08158 10.4125C9.15163 11.0606 9.3561 11.687 9.68193 12.2516C10.0078 12.8163 10.4478 13.3067 10.9739 13.6917C11.5 14.0767 12.1006 14.3477 12.7373 14.4874C13.3741 14.6271 14.033 14.6324 14.6719 14.5031C12.5626 14.0344 10.9876 12.1594 10.9876 9.90936ZM17.4563 12.0469L17.7657 13.0219H18.7969L17.9532 13.6312L18.2813 14.6062L17.4376 14.0062L16.6219 14.6062L16.9407 13.6312L16.0969 13.0219H17.1282L17.4563 12.0469ZM20.7376 12.0469L21.0563 13.0219H22.0876L21.2438 13.6312L21.5626 14.6062L20.7376 14.0062L19.8938 14.6062L20.2219 13.6312L19.3782 13.0219H20.4094L20.7376 12.0469ZM24.0188 12.0469L24.3376 13.0219H25.3688L24.5251 13.6312L24.8532 14.6062L24.0094 14.0062L23.1844 14.6062L23.5032 13.6312L22.6594 13.0219H23.6907L24.0188 12.0469ZM27.3001 12.0469L27.6188 13.0219H28.6501L27.8063 13.6312L28.1344 14.6062L27.2907 14.0062L26.4657 14.6062L26.7844 13.6312L25.9407 13.0219H26.9719L27.3001 12.0469ZM30.5813 12.0469L30.9001 13.0219H31.9313L31.0876 13.6312L31.4157 14.6062L30.5719 14.0062L29.7469 14.6062L30.0657 13.6312L29.2407 13.0219H30.2719L30.5813 12.0469ZM20.7376 8.63436L21.0563 9.60936H22.0876L21.2438 10.2187L21.5626 11.1937L20.7376 10.5844L19.8938 11.1937L20.2219 10.2187L19.3782 9.60936H20.4094L20.7376 8.63436ZM24.0188 8.63436L24.3376 9.60936H25.3688L24.5251 10.2187L24.8532 11.1937L24.0094 10.5844L23.1844 11.1937L23.5032 10.2187L22.6594 9.60936H23.6907L24.0188 8.63436ZM27.3001 8.63436L27.6188 9.60936H28.6501L27.8063 10.2187L28.1344 11.1937L27.2907 10.5844L26.4657 11.1937L26.7844 10.2187L25.9407 9.60936H26.9719L27.3001 8.63436ZM30.5813 8.63436L30.9001 9.60936H31.9313L31.0876 10.2187L31.4157 11.1937L30.5719 10.5844L29.7469 11.1937L30.0657 10.2187L29.2407 9.60936H30.2719L30.5813 8.63436ZM24.0188 5.22186L24.3376 6.19686H25.3688L24.5251 6.79686L24.8626 7.78123L24.0188 7.17186L23.1938 7.78123L23.5126 6.79686L22.6688 6.19686H23.7001L24.0188 5.22186ZM27.3001 5.22186L27.6188 6.19686H28.6501L27.8063 6.79686L28.1438 7.78123L27.3001 7.17186L26.4751 7.78123L26.7938 6.79686L25.9501 6.19686H26.9813L27.3001 5.22186ZM30.5813 5.22186L30.9001 6.19686H31.9313L31.0876 6.79686L31.4251 7.78123L30.5813 7.17186L29.7563 7.78123L30.0751 6.79686L29.2501 6.19686H30.2813L30.5813 5.22186Z" fill="#EEEEEE"/>
</g>
</g>
<defs>
<clipPath id="clip0_2076_13501">
<rect width="48" height="48" fill="white"/>
</clipPath>
</defs>
</svg>
